<?xml version="1.0" encoding="utf-8"?>
<svg viewBox="0 0 500 500" xmlns="http://www.w3.org/2000/svg">
  <defs>
    <linearGradient gradientUnits="userSpaceOnUse" x1="402.352" y1="104.778" x2="402.352" y2="104.778" id="gradient-1" gradientTransform="matrix(1, 0, 0, 1, 0, 0)" spreadMethod="pad">
      <stop offset="0" style="stop-color: rgba(60, 201, 194, 1)"/>
      <stop offset="1" style="stop-color: rgba(35, 125, 120, 1)"/>
    </linearGradient>
    <linearGradient gradientUnits="userSpaceOnUse" x1="249.761" y1="-3.319" x2="249.761" y2="506.427" id="gradient-0" gradientTransform="matrix(0.997251, -0.074107, 0.075107, 1.010729, -48.288564, 4.323877)">
      <stop offset="0" style="stop-color: rgb(63, 191, 255);"/>
      <stop offset="1" style="stop-color: rgb(45, 135, 180);"/>
    </linearGradient>
  </defs>
  <rect x="-3.471" y="-3.319" width="506.465" height="509.746" style="fill: url(#gradient-0);"/>
  <path style="stroke: rgb(0, 0, 0); fill: url(#gradient-1);" d="M 402.352 96.966"/>
  <path style="stroke: rgb(0, 0, 0); fill: rgb(27, 193, 50);" d="M 7.915 379.493 L 251.188 292.162 L 352.732 314.133 C 352.732 314.133 422.803 297.506 423.397 297.506 C 423.991 297.506 499.449 339.326 499.449 339.326 C 499.449 339.326 464.418 469.208 465.012 469.801 C 465.606 470.394 26.382 466.989 26.382 466.989 L 7.915 379.493 Z"/>
  <path style="stroke: rgb(0, 0, 0); fill: rgb(36, 153, 51);" d="M -3.563 325.416 L 116.39 307.007 L 298.694 358.67 L 471.496 305.819 L 502.629 320.465 L 502.536 506.065 L -3.309 506.15 L -3.563 325.416 Z"/>
  <path style="stroke: rgb(0, 0, 0); fill: rgb(205, 132, 21);" d="M 268.584 362.655 L 263.069 411.9 L 260.129 410.931 L 264.252 362.827 L 268.584 362.655 Z"/>
  <path style="stroke: rgb(0, 0, 0); fill: rgb(205, 132, 21);" d="M 236.409 408.351 L 242.28 357.482 L 266.627 358.67 L 260.622 410.059 L 236.936 408.551"/>
  <path style="stroke: rgb(0, 0, 0); fill: rgb(27, 193, 50);" d="M 65.914 368.765"/>
  <path style="stroke: rgb(0, 0, 0); fill: rgb(27, 193, 50);" d="M -5.344 298.694"/>
  <path style="stroke: rgb(0, 0, 0); fill: rgb(27, 193, 50);" d="M 223.872 212.589"/>
  <path style="stroke: rgb(0, 0, 0); fill: rgb(107, 59, 17);" d="M 99.169 380.048 L 114.608 159.739 L 156.77 160.333 C 156.77 160.333 156.77 385.392 157.363 385.392 C 157.956 385.392 96.793 386.58 96.793 386.58 L 99.169 380.048 Z"/>
  <path style="stroke: rgb(0, 0, 0); fill: rgb(76, 45, 17);" d="M 342.637 448.337 L 372.328 182.898 C 372.328 182.898 404.394 181.71 404.394 181.116 C 404.394 180.522 399.644 450.713 399.644 450.713 L 342.637 448.337 Z"/>
  <path style="stroke: rgb(0, 0, 0); fill: rgb(161, 86, 20);" d="M 233.967 318.884 L 245.249 224.466 L 261.283 223.278 L 261.283 318.884 L 233.967 318.884 Z"/>
  <path style="fill: rgb(216, 216, 216); stroke: rgb(0, 0, 0);" d="M 313.539 -6.532"/>
  <path d="M 134.205 169.24 C 134.205 179.354 120.165 181.116 110.451 181.116 C 93.515 181.116 70.192 169.482 63.539 156.176 C 60.711 150.518 59.173 152.758 59.173 145.91 C 59.173 145.059 57.863 143.028 58.405 142.487 C 59.592 141.299 56.76 138.015 57.947 136.827 C 59.881 134.893 57.974 130.668 57.529 130.223 C 55.974 128.668 61.273 125.294 59.766 121.249 C 57.468 115.08 63.02 120.667 64.474 112.593 C 66.079 103.683 67.141 100.648 67.085 93.365 C 67.062 90.4 66.624 83.108 72.608 79.624 C 74.811 78.342 83.776 81.201 87.117 81.999 C 91.156 82.963 91.097 75.954 100.288 71.359 C 105.239 68.883 109.302 78.372 114.608 76.603 C 119.222 75.065 126.305 76.009 131.235 76.009 C 148.644 76.009 145.296 72.701 159.451 79.778 C 162.876 81.491 168.3 80.82 171.54 81.557 C 175.023 82.349 179.849 87.671 183.519 87.78 C 191.142 88.005 190.457 91.203 198.564 99.31 C 205.215 105.961 211.821 111.522 207.688 115.655 C 207.066 116.278 209.551 122.697 211.707 127.01 C 216.119 135.833 217.272 150.543 209.332 158.483 C 207.309 160.505 194.117 167.02 190.33 163.233 C 188.896 161.8 198.885 166.317 195.962 169.24 C 193.837 171.364 191.304 175.679 189.43 177.553 C 188.214 178.769 184.114 179.307 182.898 180.523 C 182.205 181.215 179.434 179.83 178.741 180.523 C 173.961 185.302 163.62 177.278 162.114 175.772 C 161.634 175.292 160.926 170.428 160.926 170.428 C 160.926 170.428 160.753 179.508 160.333 179.929 C 154.846 185.416 151.199 183.265 148.456 180.523 C 146.906 178.973 143.837 171.747 142.518 170.427 C 142.108 170.018 133.61 171.059 133.61 170.428" style="stroke: rgb(0, 0, 0); fill: rgb(40, 173, 35);"/>
  <path d="M 387.76721738903905 191.21139969260426 C 363.32829682637157 197.3211240355946 338.16703959318517 184.96074799495125 324.22802734375 171.02137756347656 C 323.07529819593145 169.86861879470138 320.89012572556254 162.25781344602782 322.4465637207031 159.1448974609375 C 323.13365847772786 157.77069029104575 327.1971435546875 153.80047607421875 327.1971435546875 153.80047607421875 C 327.1971435546875 153.80047607421875 324.3483934924289 153.92084531587093 324.22802734375 153.80047607421875 C 321.73281051177025 151.3051951242199 312.9331046789859 149.02529812480347 311.16387939453125 145.4869384765625 C 309.6825271628977 142.52431014013806 301.8136253479191 138.5118941770379 298.6935729980469 135.3919219970703 C 293.24752009711955 129.94600903275074 285.7270414412642 117.87789783004388 289.1923828125 107.48218536376953 C 292.50954620523385 97.53099350695854 298.83683657577615 94.86877955880242 304.6318359375 89.0736312866211 C 309.80961302551503 83.89572114852157 312.94537353515625 94.41805267333984 312.94537353515625 94.41805267333984 C 312.94537353515625 94.41805267333984 310.8657306940897 81.95028228274109 311.7577209472656 80.16626739501953 C 315.9780979808301 71.72535065532524 323.30852000254913 69.80292945886372 330.166259765625 62.94536590576172 C 332.5533638966614 60.55832311148806 343.5950643488293 55.81947708129883 347.9809875488281 55.81947708129883 C 349.0215200548387 55.81947708129883 353.8508745331279 55.157277329136996 354.5130615234375 55.81947708129883 C 354.9830898714275 56.28951448780619 355.7007141113281 65.91448974609375 355.7007141113281 65.91448974609375 C 355.7007141113281 65.91448974609375 358.52941191594056 59.15570946935578 360.4512939453125 58.19477462768555 C 364.4531275855624 56.19387066130587 367.6397378798533 53.13162484986552 373.51544189453125 51.6627082824707 C 382.83915984704794 49.33179376806438 400.0543381247103 49.10440809025369 406.17578125 55.22565460205078 C 407.9573168997152 57.00713303095393 408.55106128354964 59.976186404189676 410.3325500488281 61.757720947265625 C 410.72307099444373 62.14825192785258 411.3998037371384 60.09661116925745 411.5201721191406 59.97624588012695 C 412.6532675290725 58.8431795851396 415.03476954841597 56.461691345123526 416.2707824707031 55.22565460205078 C 417.8133101578774 53.68309718685293 428.1678892560991 50.7822916534722 432.3040466308594 52.85035705566406 C 437.8997284399991 55.64817998710582 443.02749616649476 58.82312846288602 447.1496276855469 62.94536590576172 C 448.7330663269958 64.52884523583849 446.75380058664155 69.67548484800932 448.3372802734375 71.25890350341797 C 448.8569586474088 71.7785618476457 459.3136474290077 66.79577151499144 461.9952392578125 69.47743225097656 C 468.5241345606685 76.00649532275284 475.7750470876452 76.25340364205583 480.40380859375 85.51068878173828 C 482.6105262196131 89.92401063002009 478.02850341796875 94.2357952737368 478.02850341796875 96.19952392578125 C 478.02850341796875 101.43555010536369 484.03573674084225 114.53893036722552 478.622314453125 119.9524917602539 C 477.45661716973666 121.11821899783288 471.89426144314774 122.32778930664062 469.7149658203125 122.32778930664062 C 469.08418873001676 122.32778930664062 464.3553885733286 122.34291426068118 464.96435546875 121.73396301269531 C 467.32996410204504 119.3684151638351 469.9637535891693 132.07781550940337 470.9026184082031 133.01663208007812 C 471.4439411101649 133.55792696341086 470.9026184082031 137.51051652756152 470.9026184082031 138.3610382080078 C 470.9026184082031 145.13943573842815 470.1537020758405 149.42432388883756 464.96435546875 152.0189971923828 C 463.4818955825876 152.76022713546402 458.2921508796386 151.56530511378787 457.2446594238281 152.61282348632812 C 455.9446435289064 153.9128727869415 458.43231201171875 156.8292740971356 458.43231201171875 157.36341857910156 C 458.43231201171875 163.18525469247757 460.76459940012643 171.3397767159524 455.4631652832031 173.99049377441406 C 453.67253967396266 174.8858065790343 447.4808497160723 176.53139470666898 444.77435302734375 175.1781463623047 C 444.0335678040509 174.80775375065826 442.3990478515625 172.80284118652344 442.3990478515625 172.80284118652344 C 442.3990478515625 172.80284118652344 443.92726537891355 177.6407573668389 444.1805114746094 178.1472625732422 C 446.32973629502754 182.44582266863813 444.83807464249287 191.74143726832912 442.3990478515625 194.18052673339844 C 437.4233011895996 199.15640125399688 425.50250607057694 191.21139526367188 421.6152038574219 191.21139526367188 C 421.00317612969013 191.21139526367188 417.47472942397195 188.81981139998604 416.8645935058594 189.429931640625 C 416.1717910672373 190.12271627765304 417.55738066499936 192.89389547819678 416.8645935058594 193.58670043945312 C 415.10901584392593 195.34232321336268 414.1231038704879 197.51594591006597 412.114013671875 199.52493286132812 C 410.8827506625624 200.75613259590878 404.45744396570353 200.44726680104253 402.6128234863281 199.52493286132812 C 397.28502586189325 196.8609655965767 384.20428466796875 197.45883091452873 384.20428466796875 190.0237579345703" style="stroke: rgb(0, 0, 0); fill: rgb(64, 148, 45);"/>
  <path d="M 251.188 230.998 C 243.642 234.77 232.329 229.953 228.622 226.247 C 227.732 225.356 228.919 222.387 228.029 221.496 C 227.878 221.346 225.8 222.538 225.653 222.684 C 224.931 223.407 219.663 222.684 218.527 222.684 C 215.174 222.684 207.325 218.688 206.057 216.152 C 204.086 212.209 207.198 207.885 208.432 206.651 C 210.637 204.446 208.501 195.893 210.808 193.587 C 214.802 189.592 216.6 184.825 220.309 181.116 C 221.299 180.127 224.07 180.918 225.059 179.929 C 228.262 176.726 232.465 173.711 235.748 170.428 C 236.519 169.657 248.394 168.821 249.406 169.834 C 249.613 170.04 254.387 174.354 254.751 173.99 C 261.567 167.174 271.041 177.811 273.753 180.523 C 276.031 182.801 278.927 183.916 281.473 186.461 C 283.362 188.35 280.761 193.352 282.066 195.962 C 283.072 197.974 286.313 202.584 288.005 204.276 C 288.425 204.696 289.612 212.763 288.599 213.777 C 287.738 214.637 285.144 214.747 284.442 216.152 C 281.4 222.235 286.113 228.138 281.473 232.779 C 279.076 235.175 269.657 235.154 265.439 235.154 C 264.589 235.154 260.636 235.696 260.095 235.154 C 258.068 233.127 254.416 230.404 250.594 230.404" style="stroke: rgb(0, 0, 0); fill: rgb(40, 195, 35);"/>
  <path style="stroke: rgb(0, 0, 0); fill: rgb(205, 132, 21);" d="M 223.872 356.888 L 216.152 409.739 L 192.993 407.363 L 201.9 355.701 C 201.9 355.701 224.466 356.888 223.872 356.888 Z"/>
  <path style="stroke: rgb(0, 0, 0); fill: rgb(205, 132, 21);" d="M 226.067 358.853 L 218.849 408.873 C 218.849 408.873 215.116 409.371 214.868 409.371 C 214.62 409.371 223.08 359.599 222.831 358.106 C 222.582 356.613 225.32 358.853 226.067 358.853 Z"/>
  <path style="stroke: rgb(0, 0, 0); fill: rgb(205, 132, 21);" d="M 190.552 355.866 C 190.552 355.866 182.981 405.781 182.981 406.03 C 182.981 406.279 178.783 408.376 178.783 408.376 L 187.493 352.631 L 190.552 355.866 Z"/>
  <path style="stroke: rgb(0, 0, 0); fill: rgb(205, 132, 21);" d="M 188.242 355.107 L 180.523 406.176 C 180.523 406.176 153.8 404.394 155.582 404.394 C 157.364 404.394 165.083 351.544 165.083 351.544 L 188.242 355.107 Z"/>
  <path style="stroke: rgb(0, 0, 0); fill: rgb(205, 132, 21);" d="M 116.39 347.387 L 107.482 397.862 L 134.798 400.831 L 144.893 350.356 L 116.39 347.387 Z"/>
  <path style="stroke: rgb(0, 0, 0); fill: rgb(205, 132, 21);" d="M 146.059 352.382 C 146.059 352.382 136.852 399.417 136.852 399.666 C 136.852 399.915 133.118 402.403 133.118 402.403 L 143.321 348.898 L 146.059 352.382 Z"/>
  <path style="stroke: rgb(0, 0, 0); fill: rgb(205, 132, 21);" d="M 285.036 443.587 L 86.698 424.584 L 106.295 396.675 L 305.819 413.895 L 285.036 443.587 Z"/>
  <path style="stroke: rgb(0, 0, 0); fill: rgb(205, 132, 21);" d="M 309.976 363.42 L 305.819 415.677 L 280.879 412.114 L 286.223 360.451 L 309.976 363.42 Z"/>
  <path style="stroke: rgb(0, 0, 0); fill: rgb(205, 132, 21);" d="M 312.198 366.768 L 306.622 415.205 L 304.49 414.672 L 309.547 367.127 L 312.198 366.768 Z"/>
  <path style="fill: rgb(216, 216, 216); stroke: rgb(0, 0, 0);"/>
  <path style="stroke: rgb(0, 0, 0); fill: rgb(148, 139, 139);" d="M 324.228 368.171 L 99.762 348.575 L 101.544 337.886 L 326.603 359.857 L 324.228 368.171 Z"/>
  <path style="stroke: rgb(0, 0, 0); fill: rgb(148, 139, 139);" d="M 280.656 448.736 L 278.332 489.635 L 287.356 488.531 L 287.627 448.271 L 280.656 448.736 Z"/>
  <path style="stroke: rgb(0, 0, 0); fill: rgb(148, 139, 139);" d="M 306.682 423.174 L 304.553 465.002 L 297.387 465.467 L 301.57 424.104 L 306.682 423.174 Z"/>
  <path style="stroke: rgb(0, 0, 0); fill: rgb(148, 139, 139);" d="M 86.851 428.286 L 84.431 473.736 L 92.893 473.368 L 92.428 428.286 L 86.851 428.286 Z"/>
  <path style="stroke: rgb(0, 0, 0); fill: rgb(148, 139, 139);" d="M 116.596 432.004 L 116.131 449.665 L 106.371 449.2 L 108.23 430.61 L 115.666 429.216 L 116.596 432.004 Z"/>
  <path style="stroke: rgb(0, 0, 0); fill: rgb(205, 132, 21);" d="M 287.411 451.307 L 306.413 421.616 C 306.413 421.616 307.177 412.289 307.177 411.695 C 307.177 411.101 284.442 444.181 284.442 444.181 C 284.442 444.181 86.105 425.178 86.105 424.584 C 86.105 423.99 86.698 431.71 86.698 431.71 L 287.411 451.307 Z"/>
  <path style="fill: rgb(216, 216, 216); stroke: rgb(0, 0, 0);"/>
</svg>